<?xml version="1.0" encoding="utf-8"?>
<!-- Generator: Adobe Illustrator 23.0.0, SVG Export Plug-In . SVG Version: 6.00 Build 0)  -->
<svg version="1.1" id="图层_1" xmlns="http://www.w3.org/2000/svg" xmlns:xlink="http://www.w3.org/1999/xlink" x="0px" y="0px"
	 viewBox="0 0 200 200" style="enable-background:new 0 0 200 200;" xml:space="preserve">
<path d="M168,62.1c-8.7,0-16.3-6.2-18.2-14.7c-0.8-3.8-2.9-7.1-5.9-9.6s-6.7-3.8-10.6-3.8H67.1c-3.8,0-7.6,1.3-10.6,3.8
	s-5.1,5.8-5.9,9.6c-1.8,8.5-9.5,14.7-18.2,14.7c-10.3,0-18.6,8.3-18.6,18.6v71.9c0,10.3,8.3,18.6,18.6,18.6h135.5
	c10.3,0,18.6-8.3,18.6-18.6v-5.7l0-26.9V80.7C186.6,70.4,178.2,62.1,168,62.1z M176.8,120l0,26.9v5.7c0,4.9-3.9,8.8-8.8,8.8H32.4
	c-4.9,0-8.8-3.9-8.8-8.8V80.7c0-4.9,3.9-8.8,8.8-8.8c6.5,0,12.8-2.3,17.8-6.3s8.5-9.8,9.9-16.1c0.7-3.2,3.6-5.6,6.9-5.6h66.3
	c3.3,0,6.2,2.3,6.9,5.6c1.3,6.3,4.9,12,9.9,16.1s11.3,6.3,17.8,6.3c4.9,0,8.8,3.9,8.8,8.8V120z"/>
<path d="M100.2,146.9c-19.1,0-34.7-15.6-34.7-34.7c0-19.1,15.6-34.7,34.7-34.7s34.7,15.6,34.7,34.7S119.3,146.9,100.2,146.9z
	 M100.2,87.3c-13.8,0-24.9,11.2-24.9,24.9c0,13.8,11.2,24.9,24.9,24.9c13.8,0,24.9-11.2,24.9-24.9S113.9,87.3,100.2,87.3z"/>
</svg>
