<?xml version="1.0" encoding="utf-8"?>
<!-- Generator: Adobe Illustrator 21.0.0, SVG Export Plug-In . SVG Version: 6.00 Build 0)  -->
<svg version="1.1" id="图层_1" xmlns="http://www.w3.org/2000/svg" xmlns:xlink="http://www.w3.org/1999/xlink" x="0px" y="0px"
	 viewBox="0 0 24 22.5" style="enable-background:new 0 0 24 22.5;" xml:space="preserve">
<path d="M10.9,11.3L7.7,8c-0.3-0.3-0.3-0.8,0-1.1c0.3-0.3,0.8-0.3,1.1,0l3.2,3.2l3.2-3.2c0.3-0.3,0.8-0.3,1.1,0
	c0.3,0.3,0.3,0.8,0,1.1l-3.2,3.2l3.2,3.2c0.3,0.3,0.3,0.8,0,1.1c-0.3,0.3-0.8,0.3-1.1,0L12,12.3l-3.2,3.2c-0.3,0.3-0.8,0.3-1.1,0
	c-0.3-0.3-0.3-0.8,0-1.1C7.7,14.5,10.9,11.2,10.9,11.3z M12,21.9c5.9,0,10.7-4.8,10.7-10.7S17.9,0.6,12,0.6S1.3,5.3,1.3,11.2
	S6.1,21.9,12,21.9z"/>
</svg>
