<?xml version="1.0" standalone="no"?><!DOCTYPE svg PUBLIC "-//W3C//DTD SVG 1.1//EN" "http://www.w3.org/Graphics/SVG/1.1/DTD/svg11.dtd"><svg t="1558520347525" class="icon" style="" viewBox="0 0 1024 1024" version="1.1" xmlns="http://www.w3.org/2000/svg" p-id="2496" xmlns:xlink="http://www.w3.org/1999/xlink" width="200" height="200"><defs><style type="text/css"></style></defs><path d="M972.125091 313.088a510.231273 510.231273 0 0 0-269.265455-272.011636 505.018182 505.018182 0 0 0-393.821091 0A504.901818 504.901818 0 0 0 148.247273 150.574545 512.046545 512.046545 0 0 0 0.093091 512.069818a512 512 0 0 0 308.992 470.993455 499.828364 499.828364 0 0 0 196.933818 40.122182 500.433455 500.433455 0 0 0 357.608727-149.66691c46.405818-46.545455 83.246545-101.701818 108.474182-162.39709a517.213091 517.213091 0 0 0 0.023273-398.033455z m-266.263273 2.490182c39.284364 0 71.284364 32.395636 71.284364 72.308363 0 39.726545-32 72.122182-71.284364 72.122182-39.400727 0-71.540364-32.395636-71.540363-72.122182-0.023273-39.912727 32.116364-72.308364 71.540363-72.308363z m-399.592727-1.349818c39.400727 0 71.563636 32.372364 71.563636 72.168727s-32.139636 72.215273-71.563636 72.215273a71.493818 71.493818 0 0 1-50.734546-21.317819 71.447273 71.447273 0 0 1-20.619636-51.013818c0-39.726545 31.953455-72.052364 71.354182-72.052363z m458.170182 483.886545a36.398545 36.398545 0 0 1-50.082909-7.400727c-47.918545-65.024-125.835636-103.68-208.314182-103.68s-160.418909 38.656-208.244364 103.563636a36.445091 36.445091 0 0 1-50.152727 7.540364 36.212364 36.212364 0 0 1-7.284364-50.455273 326.237091 326.237091 0 0 1 114.082909-96.721454 334.801455 334.801455 0 0 1 302.987637 0 326.865455 326.865455 0 0 1 114.292363 96.791272c11.636364 15.941818 8.401455 38.306909-7.284363 50.362182z" p-id="2497"></path></svg>