<?xml version="1.0" encoding="UTF-8"?>
<svg width="24px" height="24px" viewBox="0 0 24 24" version="1.1" xmlns="http://www.w3.org/2000/svg" xmlns:xlink="http://www.w3.org/1999/xlink">
    <!-- Generator: Sketch 59 (86127) - https://sketch.com -->
    <title>shan_icon_strict_s</title>
    <desc>Created with Sketch.</desc>
    <g id="页面-1" stroke="none" stroke-width="1" fill="none" fill-rule="evenodd">
        <g id="闪租特权弹窗（驾驶指导）" transform="translate(-537.000000, -1230.000000)" fill="#A3845D" fill-rule="nonzero">
            <g id="编组-10" transform="translate(30.000000, 1118.000000)">
                <g id="编组-16" transform="translate(0.000000, 80.000000)">
                    <g id="编组-17">
                        <g id="编组-3" transform="translate(507.000000, 31.000000)">
                            <g id="shan_icon_strict_s" transform="translate(0.000000, 1.000000)">
                                <g id="database-2-fill" transform="translate(1.000000, 2.000000)">
                                    <path d="M22,8 L22,11.2 C22,13.8506667 17.0744444,16 11,16 C4.92555556,16 0,13.8506667 0,11.2 L0,8 C0,10.6506667 4.92555556,12.8 11,12.8 C17.0744444,12.8 22,10.6506667 22,8 Z M0,14 C0,16.6506667 4.92555556,18.8 11,18.8 C17.0744444,18.8 22,16.6506667 22,14 L22,17.2 C22,19.8506667 17.0744444,22 11,22 C4.92555556,22 0,19.8506667 0,17.2 L0,14 Z M11,10 C4.92555556,10 0,7.76111111 0,5 C0,2.23888889 4.92555556,0 11,0 C17.0744444,0 22,2.23888889 22,5 C22,7.76111111 17.0744444,10 11,10 Z" id="形状"></path>
                                </g>
                            </g>
                        </g>
                    </g>
                </g>
            </g>
        </g>
    </g>
</svg>