<?xml version="1.0" encoding="UTF-8"?>
<svg width="24px" height="24px" viewBox="0 0 24 24" version="1.1" xmlns="http://www.w3.org/2000/svg" xmlns:xlink="http://www.w3.org/1999/xlink">
    <!-- Generator: Sketch 59 (86127) - https://sketch.com -->
    <title>shan_icon_vip_s</title>
    <desc>Created with Sketch.</desc>
    <g id="页面-1" stroke="none" stroke-width="1" fill="none" fill-rule="evenodd">
        <g id="闪租特权弹窗（自驾礼包）" transform="translate(-307.000000, -1039.000000)" fill="#A3845D" fill-rule="nonzero">
            <g id="编组-7" transform="translate(30.000000, 926.000000)">
                <g id="编组-13" transform="translate(0.000000, 80.000000)">
                    <g id="编组-2" transform="translate(277.000000, 32.000000)">
                        <g id="shan_icon_vip_s" transform="translate(0.000000, 1.000000)">
                            <g id="community-fill备份" transform="translate(0.000000, 2.000000)">
                                <path d="M8.19512196,17.7317073 L11.7073171,17.7317073 L11.7073171,10.6394146 L7.02439025,6.55590244 L2.34146342,10.6394146 L2.34146342,17.7317073 L5.85365854,17.7317073 L5.85365854,13.0487805 L8.19512196,13.0487805 L8.19512196,17.7317073 Z M22.2439024,20.0731707 L1.17073171,20.0731707 C0.524154446,20.0731707 0,19.5490163 0,18.902439 L0,10.1067317 C0,9.76827571 0.146402189,9.44636559 0.401560983,9.224 L4.68292684,5.49053659 L4.68292684,0.170731707 C4.68292684,-0.475845561 5.20708128,-1 5.85365854,-1 L22.2439024,-1 C22.8904797,-1 23.4146342,-0.475845561 23.4146342,0.170731707 L23.4146342,18.902439 C23.4146342,19.5490163 22.8904797,20.0731707 22.2439024,20.0731707 Z M16.3902439,8.36585366 L16.3902439,10.7073171 L18.7317073,10.7073171 L18.7317073,8.36585366 L16.3902439,8.36585366 Z M16.3902439,13.0487805 L16.3902439,15.3902439 L18.7317073,15.3902439 L18.7317073,13.0487805 L16.3902439,13.0487805 Z M16.3902439,3.68292683 L16.3902439,6.02439024 L18.7317073,6.02439024 L18.7317073,3.68292683 L16.3902439,3.68292683 Z M11.7073171,3.68292683 L11.7073171,6.02439024 L14.0487805,6.02439024 L14.0487805,3.68292683 L11.7073171,3.68292683 Z" id="形状"></path>
                            </g>
                        </g>
                    </g>
                </g>
            </g>
        </g>
    </g>
</svg>