<?xml version="1.0" encoding="UTF-8"?>
<svg width="24px" height="24px" viewBox="0 0 24 24" version="1.1" xmlns="http://www.w3.org/2000/svg" xmlns:xlink="http://www.w3.org/1999/xlink">
    <!-- Generator: Sketch 59 (86127) - https://sketch.com -->
    <title>shan_icon_vip_s</title>
    <desc>Created with Sketch.</desc>
    <g id="页面-1" stroke="none" stroke-width="1" fill="none" fill-rule="evenodd">
        <g id="闪租特权弹窗（自驾礼包）" transform="translate(-294.000000, -844.000000)" fill="#A3845D" fill-rule="nonzero">
            <g id="编组-6" transform="translate(30.000000, 731.000000)">
                <g id="car-washing-line备份" transform="translate(264.000000, 113.000000)">
                    <path d="M18.4548,4.93085055 C19.2275819,4.93085055 19.9437037,5.3240684 20.3413,5.96673456 L23,10.2649598 L23,20.9331782 C23,21.5223676 22.5075132,22 21.9,22 L20.8,22 C20.1924868,22 19.7,21.5223676 19.7,20.9331782 L19.7,19.8663563 L4.3,19.8663563 L4.3,20.9331782 C4.3,21.5223676 3.80751322,22 3.2,22 L2.1,22 C1.49248678,22 1,21.5223676 1,20.9331782 L1,10.2649598 L3.6587,5.96673456 C4.05629631,5.3240684 4.77241806,4.93085055 5.5452,4.93085055 L18.4548,4.93085055 Z M5.95,13.4654253 C5.03873016,13.4654253 4.3,14.1818739 4.3,15.065658 C4.3,15.9494422 5.03873016,16.6658908 5.95,16.6658908 C6.86126984,16.6658908 7.6,15.9494422 7.6,15.065658 C7.6,14.1818739 6.86126984,13.4654253 5.95,13.4654253 Z M18.05,13.4654253 C17.1387302,13.4654253 16.4,14.1818739 16.4,15.065658 C16.4,15.9494422 17.1387302,16.6658908 18.05,16.6658908 C18.9612698,16.6658908 19.7,15.9494422 19.7,15.065658 C19.7,14.1818739 18.9612698,13.4654253 18.05,13.4654253 Z M18.4548,7.06449423 L5.5452,7.06449423 L3.5652,10.2649598 L20.4348,10.2649598 L18.4548,7.06449423 Z M5.95,-8.8817842e-16 L7.116,1.13083115 C7.58800001,1.58845649 7.72925835,2.27678305 7.4738989,2.87480838 C7.21853945,3.47283371 6.61685805,3.8627702 5.94945,3.8627702 C5.28204195,3.8627702 4.68036055,3.47283371 4.4250011,2.87480838 C4.16964165,2.27678305 4.31089999,1.58845649 4.7829,1.13083115 L4.784,1.13296479 L5.95,-8.8817842e-16 Z M12,-8.8817842e-16 L13.166,1.13083115 C13.638,1.58845649 13.7792583,2.27678305 13.5238989,2.87480838 C13.2685394,3.47283371 12.6668581,3.8627702 11.99945,3.8627702 C11.3320419,3.8627702 10.7303606,3.47283371 10.4750011,2.87480838 C10.2196417,2.27678305 10.3609,1.58845649 10.8329,1.13083115 L10.834,1.13296479 L12,-8.8817842e-16 Z M18.05,-8.8817842e-16 L19.216,1.13083115 C19.688,1.58845649 19.8292583,2.27678305 19.5738989,2.87480838 C19.3185394,3.47283371 18.7168581,3.8627702 18.04945,3.8627702 C17.3820419,3.8627702 16.7803606,3.47283371 16.5250011,2.87480838 C16.2696417,2.27678305 16.4109,1.58845649 16.8829,1.13083115 L16.884,1.13296479 L18.05,-8.8817842e-16 Z" id="形状结合"></path>
                </g>
            </g>
        </g>
    </g>
</svg>