<?xml version="1.0" encoding="UTF-8"?>
<svg width="24px" height="24px" viewBox="0 0 24 24" version="1.1" xmlns="http://www.w3.org/2000/svg" xmlns:xlink="http://www.w3.org/1999/xlink">
    <!-- Generator: Sketch 59 (86127) - https://sketch.com -->
    <title>shan_icon_chinese_s</title>
    <desc>Created with Sketch.</desc>
    <defs>
        <path d="M15.8070213,2.42593262 C14.6333912,1.47120801 13.5271598,1 12.317182,1 C11.6631006,1 10.9726495,1.14262695 10.2269816,1.42177148 C9.47542139,1.70060156 8.1184419,2.78562207 7.51359645,4.43461426 C7.51359645,4.43461426 6.44475,8.06308887 9.42031507,10.8942002 L9.66477353,11.1547021 C11.2660349,12.8036943 13.5580344,13.7150244 13.5698192,16.3065449 C13.6744705,18.3641914 11.8774569,20.3796562 9.71990192,20.4725322 L9.53611118,20.4725322 C8.43636811,20.4725322 7.47091498,20.0507607 7.11028523,19.7778154 C6.8026476,19.5479146 6.50872771,19.2995816 6.2300847,19.0341338 C5.92458335,18.5940342 4.42113181,16.6040176 5.89366466,14.1675674 C6.55880266,13.1583975 7.67697336,12.1140088 8.8366338,11.2891084 C8.09758668,10.5963008 6.10596857,8.37269043 6.76693552,5.04990918 C-1.61633231,11.8930381 2.87925813,20.4918486 6.49299286,22.5804014 C7.86177927,23.5163711 9.64023278,24 11.4920658,24 C14.4135838,24 17.5181423,22.8157695 19.5410322,20.3733223 C22.3952177,16.9325762 24.4239779,9.0591416 15.8070213,2.42593262 Z" id="path-1"></path>
    </defs>
    <g id="页面-1" stroke="none" stroke-width="1" fill="none" fill-rule="evenodd">
        <g id="闪租特权弹窗（自驾礼包）" transform="translate(-64.000000, -1039.000000)">
            <g id="编组-7" transform="translate(30.000000, 926.000000)">
                <g id="编组-13" transform="translate(0.000000, 80.000000)">
                    <g id="编组-4" transform="translate(34.000000, 32.000000)">
                        <g id="shan_icon_chinese_s" transform="translate(0.000000, 1.000000)">
                            <mask id="mask-2" fill="white">
                                <use xlink:href="#path-1"></use>
                            </mask>
                            <use id="蒙版" fill="#A3845D" fill-rule="nonzero" xlink:href="#path-1"></use>
                        </g>
                    </g>
                </g>
            </g>
        </g>
    </g>
</svg>