<?xml version="1.0" encoding="UTF-8"?>
<svg width="24px" height="24px" viewBox="0 0 24 24" version="1.1" xmlns="http://www.w3.org/2000/svg" xmlns:xlink="http://www.w3.org/1999/xlink">
    <!-- Generator: Sketch 59 (86127) - https://sketch.com -->
    <title>shan_icon_chinese_s</title>
    <desc>Created with Sketch.</desc>
    <g id="页面-1" stroke="none" stroke-width="1" fill="none" fill-rule="evenodd">
        <g id="闪租特权弹窗（自驾礼包）" transform="translate(-69.000000, -843.000000)" fill="#A3845D" fill-rule="nonzero">
            <g id="编组-6" transform="translate(30.000000, 731.000000)">
                <g id="shan_icon_chinese_s" transform="translate(39.000000, 112.000000)">
                    <path d="M18.248,2.00000088 C19.1279034,2.00000088 19.9231181,2.52977103 20.2698,3.34666832 L23,9.77777886 L23,20.888889 C23,21.5025387 22.5075132,22.0000009 21.9,22.0000009 L20.8,22.0000009 C20.1924868,22.0000009 19.7,21.5025387 19.7,20.888889 L19.7,19.777778 L4.3,19.777778 L4.3,20.888889 C4.3,21.5025387 3.80751322,22.0000009 3.2,22.0000009 L2.1,22.0000009 C1.49248678,22.0000009 1,21.5025387 1,20.888889 L1,9.77777886 L3.728,3.34666832 C4.07499662,2.52902855 4.87129738,1.99921057 5.752,2.00000088 L18.248,2.00000088 Z M5.95,13.1111119 C5.03873016,13.1111119 4.3,13.8573039 4.3,14.7777784 C4.3,15.6982529 5.03873016,16.4444449 5.95,16.4444449 C6.86126984,16.4444449 7.6,15.6982529 7.6,14.7777784 C7.6,13.8573039 6.86126984,13.1111119 5.95,13.1111119 Z M18.05,13.1111119 C17.1387302,13.1111119 16.4,13.8573039 16.4,14.7777784 C16.4,15.6982529 17.1387302,16.4444449 18.05,16.4444449 C18.9612698,16.4444449 19.7,15.6982529 19.7,14.7777784 C19.7,13.8573039 18.9612698,13.1111119 18.05,13.1111119 Z M18.2491,4.22222379 L5.752,4.22222379 L3.3947,9.77777886 L20.6064,9.77777886 L18.2491,4.22222379 Z M11.6794153,4.91870492 L12.5734583,5.82525208 L9.62326674,8.81670507 L8.72922368,7.91015791 L11.6794153,4.91870492 Z M14.7750759,5.40598114 L15.6741055,6.30744367 L13.2593769,8.78348868 L12.3603474,7.88202614 L14.7750759,5.40598114 Z" id="形状结合"></path>
                </g>
            </g>
        </g>
    </g>
</svg>