<?xml version="1.0" encoding="UTF-8"?>
<svg width="24px" height="24px" viewBox="0 0 24 24" version="1.1" xmlns="http://www.w3.org/2000/svg" xmlns:xlink="http://www.w3.org/1999/xlink">
    <!-- Generator: Sketch 59 (86127) - https://sketch.com -->
    <title>shan_icon_chinese_s</title>
    <desc>Created with Sketch.</desc>
    <g id="页面-1" stroke="none" stroke-width="1" fill="none" fill-rule="evenodd">
        <g id="闪租特权弹窗（自驾礼包）" transform="translate(-70.000000, -1230.000000)" fill="#A3845D" fill-rule="nonzero">
            <g id="编组-10" transform="translate(30.000000, 1118.000000)">
                <g id="编组-16" transform="translate(0.000000, 80.000000)">
                    <g id="编组-17">
                        <g id="编组-4" transform="translate(40.000000, 31.000000)">
                            <g id="shan_icon_chinese_s" transform="translate(0.000000, 1.000000)">
                                <path d="M22.8,4 C23.4627417,4 24,4.44771525 24,5 L24,21 C24,21.5522847 23.4627417,22 22.8,22 L1.2,22 C0.5372583,22 0,21.5522847 0,21 L0,5 C0,4.44771525 0.5372583,4 1.2,4 L22.8,4 Z M8.11851856,9.985 C7.46073749,9.985 6.91703923,10.1754981 6.48740745,10.5565 C6.05777567,10.9375019 5.80444487,11.4549967 5.72740745,12.109 L5.72740745,12.109 L5.44592593,14.4290002 C5.43802469,14.5103334 5.43407412,14.5889996 5.43407412,14.665 C5.43407412,15.2230028 5.60147985,15.6624984 5.93629634,15.9835 C6.27111283,16.3045016 6.73777483,16.465 7.33629634,16.465 C7.9940774,16.465 8.53925714,16.2715019 8.97185189,15.8845 C9.40444665,15.4974981 9.66222185,14.9710033 9.74518523,14.305 L9.74518523,14.305 L10.0118519,12.109 C10.0177778,12.0309996 10.0222223,11.9642497 10.0251852,11.9087498 L10.0251852,11.9087498 L10.0296297,11.776 C10.0296297,11.2179972 9.86074247,10.7800016 9.522963,10.462 C9.18518354,10.1439984 8.71704007,9.985 8.11851856,9.985 Z M13.042963,9.985 C12.3851819,9.985 11.8414837,10.1754981 11.4118519,10.5565 C10.9822201,10.9375019 10.7288893,11.4549967 10.6518519,12.109 L10.6518519,12.109 L10.3703704,14.4290002 C10.3624691,14.5103334 10.3585186,14.5889996 10.3585186,14.665 C10.3585186,15.2230028 10.5259243,15.6624984 10.8607408,15.9835 C11.1955573,16.3045016 11.6622193,16.465 12.2607408,16.465 C12.9185218,16.465 13.4637016,16.2715019 13.8962963,15.8845 C14.3288911,15.4974981 14.5866663,14.9710033 14.6696297,14.305 L14.6696297,14.305 L14.9362963,12.109 C14.9422223,12.0309996 14.9466667,11.9642497 14.9496297,11.9087498 L14.9496297,11.9087498 L14.9540741,11.776 C14.9540741,11.2179972 14.7851869,10.7800016 14.4474074,10.462 C14.109628,10.1439984 13.6414845,9.985 13.042963,9.985 Z M20.3496297,13.486 C20.0711098,13.486 19.8074087,13.5624992 19.5585186,13.7155 C19.3096284,13.8685008 19.1111119,14.0709987 18.962963,14.323 C18.8148141,14.5750013 18.7407408,14.8479985 18.7407408,15.142 C18.7407408,15.5080018 18.8592581,15.8139988 19.0962963,16.06 C19.3333346,16.3060012 19.6325908,16.429 19.9940741,16.429 C20.272594,16.429 20.5348136,16.3540008 20.7807408,16.204 C21.0266679,16.0539993 21.2251845,15.8515013 21.3762963,15.5965 C21.5274082,15.3414987 21.602963,15.0670015 21.602963,14.773 C21.602963,14.4069982 21.4844457,14.1010012 21.2474074,13.855 C21.0103692,13.6089988 20.711113,13.486 20.3496297,13.486 Z M5.19407412,10.057 L3.93185189,10.057 C3.88444425,10.057 3.84000025,10.0659999 3.79851856,10.084 L3.79851856,10.084 L2.86518523,10.489 C2.81185163,10.5130001 2.77925936,10.5549997 2.76740745,10.615 L2.76740745,10.615 L2.66666667,11.5902501 C2.66666667,11.6360836 2.69135782,11.659 2.74074078,11.659 L2.74074078,11.659 L3.65037042,11.44 C3.65827165,11.44 3.66617284,11.444 3.67407412,11.452 C3.68592603,11.4640001 3.69185189,11.4759999 3.69185189,11.488 L3.69185189,11.488 L3.11407412,16.249 C3.10814816,16.2790002 3.11407403,16.3044999 3.13185189,16.3255 C3.14962976,16.3465001 3.17333323,16.357 3.202963,16.357 L3.202963,16.357 L4.42962967,16.357 C4.45925945,16.357 4.48444438,16.3465001 4.50518523,16.3255 C4.52592607,16.3044999 4.53925927,16.2790002 4.54518523,16.249 L4.54518523,16.249 L5.282963,10.165 C5.28888896,10.1349998 5.28296309,10.1095001 5.26518523,10.0885 C5.24740736,10.0674999 5.22370389,10.057 5.19407412,10.057 L5.19407412,10.057 Z M21.0518519,10.057 L20.2696297,10.057 C20.2103701,10.057 20.1629632,10.0809998 20.1274074,10.129 L20.1274074,10.129 L16.1362963,16.231 C16.1185185,16.2670002 16.1140741,16.2969999 16.122963,16.321 C16.1318519,16.3450001 16.1570369,16.357 16.1985186,16.357 L16.1985186,16.357 L16.9896297,16.357 C17.0488892,16.357 17.0933332,16.3330002 17.122963,16.285 L17.122963,16.285 L21.1051852,10.183 C21.1229631,10.1529998 21.1318519,10.1290001 21.1318519,10.111 C21.1318519,10.0749998 21.1051855,10.057 21.0518519,10.057 L21.0518519,10.057 Z M20.2518519,14.35 C20.3940748,14.35 20.5125922,14.3994995 20.6074074,14.4985 C20.7022227,14.5975005 20.7496297,14.7219993 20.7496297,14.872 C20.7496297,15.064001 20.6844451,15.2289993 20.5540741,15.367 C20.4237031,15.5050007 20.2725935,15.574 20.1007408,15.574 C19.9525919,15.574 19.8296302,15.5215005 19.7318519,15.4165 C19.6340736,15.3114995 19.5851852,15.1810008 19.5851852,15.025 C19.5851852,14.8449991 19.6518512,14.6875007 19.7851852,14.5525 C19.9185192,14.4174993 20.0740732,14.35 20.2518519,14.35 Z M7.96740745,11.263 C8.16296398,11.263 8.31555505,11.3199994 8.42518523,11.434 C8.5348154,11.5480006 8.58962967,11.706999 8.58962967,11.911 C8.58962967,11.9710003 8.58666674,12.0189998 8.58074078,12.055 L8.58074078,12.055 L8.29629634,14.386 C8.27259252,14.6320012 8.18814892,14.8254993 8.042963,14.9665 C7.89777709,15.1075007 7.71259376,15.178 7.48740745,15.178 C7.29777687,15.178 7.14814874,15.1195006 7.03851856,15.0025 C6.92888838,14.8854994 6.87407412,14.725001 6.87407412,14.521 C6.87407412,14.4609997 6.87703705,14.4160001 6.882963,14.386 L6.882963,14.386 L7.16740745,12.055 C7.19703723,11.8089988 7.28296229,11.6155007 7.42518523,11.4745 C7.56740816,11.3334993 7.74814709,11.263 7.96740745,11.263 Z M12.8918519,11.263 C13.0874084,11.263 13.2399995,11.3199994 13.3496297,11.434 C13.4592598,11.5480006 13.5140741,11.706999 13.5140741,11.911 C13.5140741,11.9710003 13.5111112,12.0189998 13.5051852,12.055 L13.5051852,12.055 L13.2207408,14.386 C13.197037,14.6320012 13.1125934,14.8254993 12.9674074,14.9665 C12.8222215,15.1075007 12.6370382,15.178 12.4118519,15.178 C12.2222213,15.178 12.0725932,15.1195006 11.962963,15.0025 C11.8533328,14.8854994 11.7985186,14.725001 11.7985186,14.521 C11.7985186,14.4609997 11.8014815,14.4160001 11.8074074,14.386 L11.8074074,14.386 L12.0918519,12.055 C12.1214817,11.8089988 12.2074067,11.6155007 12.3496297,11.4745 C12.4918526,11.3334993 12.6725915,11.263 12.8918519,11.263 Z M17.3540741,9.985 C17.0814802,9.985 16.820742,10.0599992 16.5718519,10.21 C16.3229618,10.3600007 16.1229638,10.5609987 15.9718519,10.813 C15.82074,11.0650013 15.7451852,11.3379985 15.7451852,11.632 C15.7451852,12.0040019 15.8637026,12.3129988 16.1007408,12.559 C16.337779,12.8050012 16.6370353,12.928 16.9985186,12.928 C17.2770385,12.928 17.5392581,12.8530007 17.7851852,12.703 C18.0311124,12.5529993 18.2296289,12.3505013 18.3807408,12.0955 C18.5318526,11.8404987 18.6074074,11.5660015 18.6074074,11.272 C18.6074074,10.9059982 18.4888901,10.6000012 18.2518519,10.354 C18.0148137,10.1079988 17.7155574,9.985 17.3540741,9.985 Z M17.2474074,10.84 C17.3955563,10.84 17.5185181,10.8909995 17.6162963,10.993 C17.7140746,11.0950005 17.762963,11.2209993 17.762963,11.371 C17.762963,11.5570009 17.6977785,11.7189993 17.5674074,11.857 C17.4370364,11.9950007 17.2829639,12.064 17.1051852,12.064 C16.9570363,12.064 16.8340746,12.0130005 16.7362963,11.911 C16.6385181,11.8089995 16.5896297,11.6830008 16.5896297,11.533 C16.5896297,11.3469991 16.6562957,11.1850007 16.7896297,11.047 C16.9229637,10.9089993 17.0755547,10.84 17.2474074,10.84 Z" id="形状结合"></path>
                            </g>
                        </g>
                    </g>
                </g>
            </g>
        </g>
    </g>
</svg>