<svg id="图层_1" data-name="图层 1" xmlns="http://www.w3.org/2000/svg" viewBox="0 0 24 22"><title>加油</title><g id="页面-1"><g id="闪租特权弹窗_驾驶指导_" data-name="闪租特权弹窗（驾驶指导）"><g id="编组-6"><path id="形状" d="M1.2,19.56V1.22A1.21,1.21,0,0,1,2.4,0H13.2a1.21,1.21,0,0,1,1.2,1.22V11h2.4a2.42,2.42,0,0,1,2.4,2.44v4.89a1.2,1.2,0,1,0,2.4,0V9.78H19.2A1.21,1.21,0,0,1,18,8.56V4.17l-2-2L17.71.42l5.94,6.05a1.23,1.23,0,0,1,.35.86v11a3.6,3.6,0,1,1-7.2,0V13.44H14.4v6.11h1.2V22H0V19.56ZM3.6,2.44V9.78H12V2.44Z"/></g></g></g></svg>