<?xml version="1.0" encoding="utf-8"?>
<!-- Generator: Adobe Illustrator 18.0.0, SVG Export Plug-In . SVG Version: 6.00 Build 0)  -->
<!DOCTYPE svg PUBLIC "-//W3C//DTD SVG 1.1//EN" "http://www.w3.org/Graphics/SVG/1.1/DTD/svg11.dtd">
<svg version="1.1" id="图层_1" xmlns="http://www.w3.org/2000/svg" xmlns:xlink="http://www.w3.org/1999/xlink" x="0px" y="0px"
	 viewBox="0 0 20 20" enable-background="new 0 0 20 20" xml:space="preserve">
<g>
	<defs>
		<path id="SVGID_1_" d="M10,20C4.5,20,0,15.5,0,10S4.5,0,10,0s10,4.5,10,10S15.5,20,10,20z M10,15.4c0.7,0,1.2-0.6,1.2-1.3
			c0-0.7-0.6-1.3-1.2-1.3c-0.7,0-1.3,0.6-1.3,1.3C8.8,14.9,9.3,15.4,10,15.4z M10,12.1c0.6,0,0.8-0.7,1-2.8c0.1-1.1,0.2-2.6,0.2-3
			c0-0.9-0.5-1.7-1.2-1.7S8.7,5.4,8.7,6.2c0,0.4,0.1,1.9,0.2,3C9.2,11.4,9.4,12.1,10,12.1z"/>
	</defs>
	<use xlink:href="#SVGID_1_"  overflow="visible" fill="#040000"/>
	<clipPath id="SVGID_2_">
		<use xlink:href="#SVGID_1_"  overflow="visible"/>
	</clipPath>
</g>
</svg>
