<?xml version="1.0" encoding="utf-8"?>
<!-- Generator: Adobe Illustrator 19.0.0, SVG Export Plug-In . SVG Version: 6.00 Build 0)  -->
<svg version="1.1" id="图层_1" xmlns="http://www.w3.org/2000/svg" xmlns:xlink="http://www.w3.org/1999/xlink" x="0px" y="0px"
	 viewBox="-83 85 32 32" style="enable-background:new -83 85 32 32;" xml:space="preserve">
<title>Group 16</title>
<desc>Created with Sketch.</desc>
<g>
	<path d="M-53,95h-9c2.8,0,5-2.2,5-5s-2.2-5-5-5s-5,2.2-5,5c0-2.8-2.2-5-5-5s-5,2.2-5,5s2.2,5,5,5h-9c-1.1,0-2,0.9-2,2v3
		c0,1.1,0.9,2,2,2h12v-7h2h2v7h12c1.1,0,2-0.9,2-2v-3C-51,95.9-51.9,95-53,95z M-69,93h-3c-1.7,0-3-1.3-3-3s1.3-3,3-3s3,1.3,3,3V93z
		 M-65,90c0-1.7,1.3-3,3-3s3,1.3,3,3s-1.3,3-3,3h-3V90z"/>
	<path d="M-80,106v9c0,1.1,0.9,2,2,2h7c1.1,0,2-0.9,2-2v-11h-9C-79.1,104-80,104.9-80,106z"/>
	<path d="M-56,104h-9v11c0,1.1,0.9,2,2,2h7c1.1,0,2-0.9,2-2v-9C-54,104.9-54.9,104-56,104z"/>
</g>
</svg>
