<?xml version="1.0" encoding="utf-8"?>
<!-- Generator: Adobe Illustrator 23.0.0, SVG Export Plug-In . SVG Version: 6.00 Build 0)  -->
<svg version="1.1" id="图层_1" xmlns="http://www.w3.org/2000/svg" xmlns:xlink="http://www.w3.org/1999/xlink" x="0px" y="0px"
	 viewBox="0 0 52 52" style="enable-background:new 0 0 52 52;" xml:space="preserve">
<path d="M25.9,4.4c0.2,0,0.6,0,0.9,0.3l19.7,15.6c0,0,0.1,0.1,0.1,0.1c0.3,0.3,0.5,0.6,0.5,1v26.2H38V33.9c0-2.5-2-4.5-4.5-4.5H18.6
	c-2.5,0-4.5,2-4.5,4.5v13.7H4.9V21.3c0-0.4,0.2-0.7,0.5-1L24.8,4.8C25.1,4.5,25.5,4.4,25.9,4.4 M25.9,1c-1.1,0-2.2,0.4-3.2,1.1
	L3.2,17.6c-1.1,0.9-1.7,2.2-1.7,3.6v27.6c0,1.2,1,2.1,2.1,2.1h11.7c1.2,0,2.1-1,2.1-2.1V33.9c0-0.6,0.5-1.1,1.1-1.1h14.9
	c0.6,0,1.1,0.5,1.1,1.1v14.9c0,1.2,1,2.1,2.1,2.1h11.6c1.2,0,2.1-1,2.1-2.1V21.4c0-1.5-0.7-2.9-1.9-3.8L28.8,2
	C27.9,1.3,26.9,1,25.9,1L25.9,1z"/>
<path d="M84.4,4.1c0.2,0,0.5,0,0.8,0.3l20.1,15.9l0.1,0l0.1,0c0.3,0.2,0.5,0.5,0.5,0.9v26.5h-9v-12c0-4-3.3-7.3-7.4-7.3h-10
	c-4.1,0-7.4,3.3-7.4,7.3v12h-9V21.2c0-0.3,0.2-0.6,0.4-0.8L83.4,4.5l0,0l0,0C83.7,4.3,84,4.1,84.4,4.1 M84.4,0.5
	c-1.1,0-2.3,0.4-3.2,1.1L61.3,17.5c-1.1,0.9-1.8,2.3-1.8,3.7v28.2c0,1.2,1,2.2,2.2,2.2h11.9c1.2,0,2.2-1,2.2-2.2V35.8
	c0-2,1.7-3.6,3.7-3.6h10c2.1,0,3.7,1.6,3.7,3.6v13.5c0,1.2,1,2.2,2.2,2.2h11.9c1.2,0,2.2-1,2.2-2.2v-28c0-1.5-0.7-2.9-2-3.8
	l-20.1-16C86.5,0.8,85.4,0.5,84.4,0.5z"/>
</svg>
