<!-- Generated by IcoMoon.io -->
<svg version="1.1" xmlns="http://www.w3.org/2000/svg" width="32" height="32" viewBox="0 0 32 32">
<title>ic-daijinquan</title>
<path d="M32 19.2v6.397c0 1.769-1.432 3.203-3.2 3.203h-25.6c-1.767 0-3.2-1.431-3.2-3.203v-6.397c1.767 0 3.2-1.433 3.2-3.2s-1.433-3.2-3.2-3.2v-6.397c0-1.769 1.432-3.203 3.2-3.203h25.6c1.767 0 3.2 1.431 3.2 3.203v6.397c-1.767 0-3.2 1.433-3.2 3.2s1.433 3.2 3.2 3.2zM22.592 12.944l-5.040 0.672c-0.096-1.28-0.144-2.736-0.144-4.368h-1.536c0.016 1.696 0.080 3.232 0.176 4.576l-3.44 0.464 0.24 1.44 3.328-0.448c0.112 1.104 0.272 2.032 0.464 2.784 0.464 1.808 1.168 3.28 2.096 4.4 0.848 1.024 1.68 1.536 2.48 1.536 0.496-0.016 0.896-0.272 1.216-0.752 0.352-0.64 0.656-1.616 0.88-2.928l-1.328-0.768c-0.192 1.92-0.48 2.88-0.848 2.912-0.512-0.032-1.072-0.464-1.648-1.296-0.624-0.88-1.12-2.16-1.488-3.824-0.128-0.64-0.24-1.408-0.336-2.272l5.168-0.688-0.24-1.44zM10.512 15.536v8.544h1.536v-10.816c0.608-1.056 1.12-2.192 1.52-3.392l-1.424-0.672c-0.768 2.464-1.984 4.624-3.648 6.48l0.48 1.584c0.544-0.56 1.056-1.136 1.536-1.728zM19.12 9.312l-0.976 0.944c1.024 0.88 1.808 1.696 2.368 2.464l1.040-1.024c-0.672-0.8-1.472-1.584-2.432-2.384z"></path>
</svg>
