<!-- Generated by IcoMoon.io -->
<svg version="1.1" xmlns="http://www.w3.org/2000/svg" width="32" height="32" viewBox="0 0 32 32">
<title>ic-youhuiquan</title>
<path d="M32 19.2v6.397c0 1.769-1.432 3.203-3.2 3.203h-25.6c-1.767 0-3.2-1.431-3.2-3.203v-6.397c1.767 0 3.2-1.433 3.2-3.2s-1.433-3.2-3.2-3.2v-6.397c0-1.769 1.432-3.203 3.2-3.203h25.6c1.767 0 3.2 1.431 3.2 3.203v6.397c-1.767 0-3.2 1.433-3.2 3.2s1.433 3.2 3.2 3.2zM8.864 10.224v1.28h6.384v0.704h-5.024v4.784h5.024v0.768c-1.824 0.032-3.84 0.048-6.048 0.080l0.192 1.328c5.408-0.144 9.36-0.304 11.84-0.48 0.304 0.32 0.576 0.64 0.832 0.96l1.12-0.768c-0.48-0.544-1.136-1.184-1.968-1.888h0.56v-4.784h-5.024v-0.704h6.384v-1.28h-6.384v-0.976h-1.504v0.976h-6.384zM20.144 17.616c-1.008 0.032-2.144 0.080-3.392 0.112v-0.736h3.264l-0.32 0.208 0.448 0.416zM20.336 15.872h-3.584v-0.784h3.584v0.784zM15.248 15.872h-3.584v-0.784h3.584v0.784zM11.664 14.112v-0.784h3.584v0.784h-3.584zM16.752 13.328h3.584v0.784h-3.584v-0.784zM10.208 19.648c-0.304 1.088-0.8 2.096-1.488 3.040l1.248 0.8c0.688-1.008 1.216-2.192 1.6-3.568l-1.36-0.272zM18.288 23.792c0.576 0 0.992-0.112 1.264-0.336 0.288-0.24 0.496-0.96 0.608-2.176l-1.376-0.448c-0.048 0.752-0.144 1.2-0.272 1.36-0.096 0.128-0.272 0.208-0.496 0.208h-3.536c-0.384 0-0.56-0.16-0.56-0.464v-2.352h-1.472v2.672c0 1.024 0.528 1.536 1.584 1.536h4.256zM16.176 19.184l-1.136 0.704c0.768 0.72 1.376 1.376 1.824 1.968l1.136-0.784c-0.432-0.544-1.040-1.168-1.824-1.888zM20.976 19.28l-1.152 0.72c0.992 1.168 1.776 2.224 2.352 3.184l1.2-0.8c-0.56-0.896-1.36-1.936-2.4-3.104z"></path>
</svg>
