<?xml version="1.0" encoding="utf-8"?>
<!-- Generator: Adobe Illustrator 18.0.0, SVG Export Plug-In . SVG Version: 6.00 Build 0)  -->
<!DOCTYPE svg PUBLIC "-//W3C//DTD SVG 1.1//EN" "http://www.w3.org/Graphics/SVG/1.1/DTD/svg11.dtd">
<svg version="1.1" id="图层_1" xmlns="http://www.w3.org/2000/svg" xmlns:xlink="http://www.w3.org/1999/xlink" x="0px" y="0px"
	 viewBox="0 0 20 20" enable-background="new 0 0 20 20" xml:space="preserve">
<g id="Page-1">
	<g id="iPhone-8" transform="translate(-83.000000, -158.000000)">
		<g id="_x2D_ic_x5F_address" transform="translate(85.000000, 158.000000)">
			<path id="Fill-1" fill="#333333" d="M8,18.3C6.5,17,1,12.1,0.9,8.6C0.8,6.8,1.5,5.1,2.7,3.7C4.1,2.3,6,1.5,8,1.5s3.9,0.8,5.3,2.3
				c1.3,1.3,1.9,3.1,1.9,4.9C15,12.1,9.5,17,8,18.3 M14.3,2.8c-1.6-1.7-3.9-2.7-6.2-2.7l0,0l0,0l0,0l0,0c-2.3,0-4.6,0.9-6.2,2.7
				C0.3,4.4-0.5,6.5-0.5,8.7c0.2,4.6,7.5,10.6,7.6,10.7c0.3,0.3,0.5,0.5,0.8,0.5c0,0,0,0,0.1,0l0,0l0,0c0,0,0,0,0.1,0
				c0.3,0,0.4-0.1,0.8-0.5c0.1-0.1,7.4-6.1,7.6-10.7C16.5,6.5,15.7,4.4,14.3,2.8"/>
			<path id="Fill-4" fill="#333333" d="M8.1,5.8c-1.3,0-2.4,1.1-2.4,2.4s1.1,2.4,2.4,2.4s2.4-1.1,2.4-2.4S9.4,5.8,8.1,5.8 M8.1,11.9
				c-2.1,0-3.7-1.7-3.7-3.7S6,4.5,8.1,4.5s3.7,1.7,3.7,3.7S10.1,11.9,8.1,11.9"/>
		</g>
	</g>
</g>
</svg>
