<?xml version="1.0" encoding="utf-8"?>
<!-- Generator: Adobe Illustrator 20.1.0, SVG Export Plug-In . SVG Version: 6.00 Build 0)  -->
<svg version="1.1" id="图层_1" xmlns="http://www.w3.org/2000/svg" xmlns:xlink="http://www.w3.org/1999/xlink" x="0px" y="0px"
	 viewBox="0 0 30 30" style="enable-background:new 0 0 30 30;" xml:space="preserve">
<g id="Page-1">
	<g id="租车详情_滑动" transform="translate(-690.000000, -1105.000000)">
		<g id="服务" transform="translate(0.000000, 1066.000000)">
			<path id="ic_all" d="M693,57c-1.7,0-3-1.3-3-3s1.3-3,3-3s3,1.3,3,3S694.7,57,693,57z M705,57c-1.7,0-3-1.3-3-3s1.3-3,3-3
				s3,1.3,3,3S706.7,57,705,57z M717,57c-1.7,0-3-1.3-3-3s1.3-3,3-3s3,1.3,3,3S718.7,57,717,57z"/>
		</g>
	</g>
</g>
</svg>
