<?xml version="1.0" encoding="utf-8"?>
<!-- Generator: Adobe Illustrator 20.1.0, SVG Export Plug-In . SVG Version: 6.00 Build 0)  -->
<svg version="1.1" id="图层_1" xmlns="http://www.w3.org/2000/svg" xmlns:xlink="http://www.w3.org/1999/xlink" x="0px" y="0px"
	 viewBox="0 0 18 18" style="enable-background:new 0 0 18 18;" xml:space="preserve">
<g id="Page-1">
	<g id="地图模式_车行信息" transform="translate(-679.000000, -1021.000000)">
		<g id="车行详情" transform="translate(0.000000, 988.000000)">
			<g id="ic_关闭" transform="translate(646.000000, 0.000000)">
				<g id="ic" transform="translate(33.000000, 33.000000)">
					<path id="ic_close" d="M11.1,9L17,3.1c0.6-0.6,0.6-1.5,0-2.1l0,0l0,0c-0.6-0.6-1.5-0.6-2.1,0l0,0L9,6.9L3.1,1l0,0
						C2.5,0.4,1.6,0.4,1,1l0,0l0,0C0.4,1.6,0.4,2.5,1,3.1l0,0L6.9,9L1,14.9l0,0c-0.6,0.6-0.6,1.5,0,2.1l0,0c0.6,0.6,1.5,0.6,2.1,0
						L9,11.1l5.9,5.9l0,0c0.6,0.6,1.5,0.6,2.1,0l0,0c0.6-0.6,0.6-1.5,0-2.1L11.1,9z"/>
				</g>
			</g>
		</g>
	</g>
</g>
</svg>
