<?xml version="1.0" encoding="utf-8"?>
<!-- Generator: Adobe Illustrator 21.0.0, SVG Export Plug-In . SVG Version: 6.00 Build 0)  -->
<svg version="1.1" id="图层_1" xmlns="http://www.w3.org/2000/svg" xmlns:xlink="http://www.w3.org/1999/xlink" x="0px" y="0px"
	 viewBox="0 0 52 52" style="enable-background:new 0 0 52 52;" xml:space="preserve">
<g id="Page-1">
	<path id="ic_gasoline" d="M35,35V15.3c0-1.3-1-2.3-2.3-2.3H17.3C16,13,15,14,15,15.3V35h-3v4h3h20h3v-4H35z M39,18h-4v4h4v10h4V18
		H39z M26,52C11.6,52,0,40.4,0,26S11.6,0,26,0s26,11.6,26,26S40.4,52,26,52z M20,18h10v8H20V18z"/>
</g>
</svg>
