<?xml version="1.0" encoding="utf-8"?>
<!-- Generator: Adobe Illustrator 21.0.0, SVG Export Plug-In . SVG Version: 6.00 Build 0)  -->
<svg version="1.1" id="图层_1" xmlns="http://www.w3.org/2000/svg" xmlns:xlink="http://www.w3.org/1999/xlink" x="0px" y="0px"
	 viewBox="0 0 52 52" style="enable-background:new 0 0 52 52;" xml:space="preserve">
<g id="Page-1">
	<path id="ic_km" d="M26,52C11.6,52,0,40.4,0,26S11.6,0,26,0s26,11.6,26,26S40.4,52,26,52z M10,19v15h4.7v-3.7l2.4-2.5l3.2,6.2H26
		l-5.7-9.3l5.5-5.7h-6.2l-4.9,5.7V19H10z M27,19v15h3.8V22.6L33.8,34h3.5l3-11.4V34H44V19h-6.1l-2.4,9.1L33.1,19H27z"/>
</g>
</svg>
