<?xml version="1.0" encoding="utf-8"?>
<!-- Generator: Adobe Illustrator 20.1.0, SVG Export Plug-In . SVG Version: 6.00 Build 0)  -->
<svg version="1.1" id="图层_1" xmlns="http://www.w3.org/2000/svg" xmlns:xlink="http://www.w3.org/1999/xlink" x="0px" y="0px"
	 viewBox="0 0 28 28" style="enable-background:new 0 0 28 28;" xml:space="preserve">
<g id="Page-1">
	<g id="List_默认" transform="translate(-665.000000, -1131.000000)">
		<g id="筛选_x2B_浏览记录" transform="translate(636.000000, 1116.000000)">
			<g id="排序">
				<g id="ic_order" transform="translate(28.000000, 14.000000)">
					<path id="ic_sorting" d="M22,24.6l4.3-4.3c0.4-0.4,1-0.4,1.4,0c0.4,0.4,0.4,1,0,1.4l-6,6c-0.4,0.4-1,0.4-1.4,0l-6-6
						c-0.4-0.4-0.4-1,0-1.4c0.4-0.4,1-0.4,1.4,0l4.3,4.3V9c0-0.6,0.4-1,1-1s1,0.4,1,1V24.6z M10,5.4V21c0,0.6-0.4,1-1,1
						c-0.6,0-1-0.4-1-1V5.4L3.7,9.7c-0.4,0.4-1,0.4-1.4,0c-0.4-0.4-0.4-1,0-1.4l6-6c0.4-0.4,1-0.4,1.4,0l6,6c0.4,0.4,0.4,1,0,1.4
						c-0.4,0.4-1,0.4-1.4,0L10,5.4z"/>
				</g>
			</g>
		</g>
	</g>
</g>
</svg>
