<?xml version="1.0" encoding="utf-8"?>
<!-- Generator: Adobe Illustrator 20.1.0, SVG Export Plug-In . SVG Version: 6.00 Build 0)  -->
<svg version="1.1" id="图层_1" xmlns="http://www.w3.org/2000/svg" xmlns:xlink="http://www.w3.org/1999/xlink" x="0px" y="0px"
	 viewBox="0 0 40 40" style="enable-background:new 0 0 40 40;" xml:space="preserve">
<g id="Page-1">
	<g id="付款" transform="translate(-30.000000, -722.000000)">
		<g id="提示" transform="translate(0.000000, 642.000000)">
			<path id="ic_praise" d="M50,120c-11,0-20-9-20-20s9-20,20-20s20,9,20,20S61,120,50,120z M53.1,96c2.4-8.9-1.5-9.3-1.5-9.3
				c-1.7,0-1.6,1.3-1.5,1.6c0,4.3-4.6,7.8-4.6,7.8v12.4c0,1.1,1.7,1.6,2.3,1.6H57c0.9,0,1.5-2.3,1.5-2.3c2.3-7.9,2.3-10.1,2.3-10.1
				c0-1.6-1.6-1.5-1.6-1.5L53.1,96z M39.9,96c-0.8,0-0.8,0.8-0.8,0.8l0.8,12.4c0,0.8,0.8,0.8,0.8,0.8h2.4c0.7,0,0.7-0.5,0.7-0.5V97
				c0-1-0.9-1-0.9-1H39.9z"/>
		</g>
	</g>
</g>
</svg>
