<?xml version="1.0" encoding="utf-8"?>
<!-- Generator: Adobe Illustrator 21.0.0, SVG Export Plug-In . SVG Version: 6.00 Build 0)  -->
<svg version="1.1" id="图层_1" xmlns="http://www.w3.org/2000/svg" xmlns:xlink="http://www.w3.org/1999/xlink" x="0px" y="0px"
	 viewBox="0 0 40 40" style="enable-background:new 0 0 40 40;" xml:space="preserve">
<title>不限里程 copy</title>
<desc>Created with Sketch.</desc>
<g id="Page-2">
	<path id="Combined-Shape-Copy-2" d="M5.9,34.1C-2,26.3-2,13.7,5.9,5.9s20.5-7.8,28.3,0s7.8,20.5,0,28.3S13.7,42,5.9,34.1z
		 M26.4,9.4c-0.4-0.4-1-0.4-1.4,0l-2.8,2.8c-0.4,0.4-0.4,1,0,1.4l4.2,4.2c0.4,0.4,1,0.4,1.4,0l2.8-2.8c0.4-0.4,0.4-1,0-1.4L26.4,9.4
		z M20,15.8c-0.4-0.4-1-0.4-1.4,0l-8.9,8.9c-0.2,0.2-0.3,0.4-0.3,0.7l-0.2,4.5c0,0,0,0.1,0,0.1c0,0.6,0.5,1,1,1l4.4-0.2
		c0.2,0,0.5-0.1,0.7-0.3l8.9-8.9c0.4-0.4,0.4-1,0-1.4L20,15.8z"/>
</g>
</svg>
