<?xml version="1.0" encoding="utf-8"?>
<!-- Generator: Adobe Illustrator 21.0.0, SVG Export Plug-In . SVG Version: 6.00 Build 0)  -->
<svg version="1.1" id="图层_1" xmlns="http://www.w3.org/2000/svg" xmlns:xlink="http://www.w3.org/1999/xlink" x="0px" y="0px"
	 viewBox="0 0 40 40" style="enable-background:new 0 0 40 40;" xml:space="preserve">
<g id="Page-2">
	<path id="Combined-Shape-Copy-6" d="M21,19h3.5c0.8,0,1.5,0.7,1.5,1.5S25.3,22,24.5,22h-5c-0.8,0-1.5-0.7-1.5-1.5v-7
		c0-0.8,0.7-1.5,1.5-1.5s1.5,0.7,1.5,1.5V19z M20,40C9,40,0,31,0,20S9,0,20,0s20,9,20,20S31,40,20,40z M20,32c6.6,0,12-5.4,12-12
		S26.6,8,20,8S8,13.4,8,20S13.4,32,20,32z"/>
</g>
</svg>
