<?xml version="1.0" encoding="utf-8"?>
<!-- Generator: Adobe Illustrator 20.1.0, SVG Export Plug-In . SVG Version: 6.00 Build 0)  -->
<svg version="1.1" id="图层_1" xmlns="http://www.w3.org/2000/svg" xmlns:xlink="http://www.w3.org/1999/xlink" x="0px" y="0px"
	 viewBox="0 0 22 22" style="enable-background:new 0 0 22 22;" xml:space="preserve">
<g id="Page-1">
	<g id="List" transform="translate(-301.000000, -781.000000)">
		<g id="list" transform="translate(160.000000, 229.000000)">
			<g id="福特探险者">
				<g id="enterprise1" transform="translate(0.000000, 341.000000)">
					<g id="标签_取车向导" transform="translate(138.000000, 206.000000)">
						<path id="Fill-1" d="M9.9,15.1c-0.1-1.1,0.2-2.2,0.8-3.1c0.2-0.2,0.4,0,0.4,0s0,0,0,0l1.2,1.6c0.3,0.4,0.3,0.9-0.2,1l-1.9,0.7
							C10.2,15.3,9.9,15.3,9.9,15.1 M12.5,10.4c1-0.5,2.1-0.5,3.1-0.1c0.3,0.1,0.1,0.4,0.1,0.4s0,0,0,0l-1.1,1.7
							c-0.3,0.5-0.7,0.5-1,0.1l-1.2-1.6C12.4,10.8,12.3,10.6,12.5,10.4 M16,13.3l1.1-1.7c0.1-0.1,0.3-0.2,0.5,0
							c0.7,0.8,1.1,1.9,1.1,3c-0.1,0.3-0.3,0.2-0.3,0.2s0,0,0,0l-1.9-0.6C15.9,14.1,15.7,13.7,16,13.3 M15.6,14.7
							c0,0.8-0.7,1.4-1.4,1.3c-0.7,0-1.3-0.7-1.3-1.4c0-0.8,0.7-1.4,1.4-1.3C15,13.3,15.6,13.9,15.6,14.7 M15.3,18.7l-0.1-2.1
							c0-0.5,0.3-0.9,0.7-0.7l1.9,0.6c0.1,0.1,0.3,0.2,0.2,0.4c-0.6,1-1.4,1.7-2.4,2C15.3,19,15.3,18.7,15.3,18.7
							C15.3,18.7,15.3,18.7,15.3,18.7 M10.8,16.9l1.9-0.7c0.5-0.2,0.9,0,0.9,0.5l0.1,2c0,0.1-0.1,0.4-0.4,0.3
							c-1.1-0.2-2-0.9-2.6-1.8C10.5,17,10.8,16.9,10.8,16.9C10.8,16.9,10.8,16.9,10.8,16.9 M14.1,6.5C7.3,6.5,3.9,12,3.2,13.3
							C3.1,13.4,3,13.6,3,13.8c0,0.4,0.3,0.7,0.7,0.7c0.3,0,0.5-0.2,0.6-0.5l0,0c0.7-1.4,3.9-6.2,9.8-6.2c5.9,0,9.4,5.7,9.4,5.7
							c-1.7,2.5-3.6,3.9-5.2,4.7c0.7-0.9,1.2-2,1.2-3.3c0.1-3-2.1-5.5-5-5.6c-2.9-0.1-5.3,2.2-5.5,5.2c-0.1,1.5,0.4,2.8,1.3,3.8
							L5.8,24c0,0-0.1,0.2,0,0.4C5.9,24.5,7,25.4,7,25.4s0.2,0.2,0.4-0.1c0.2-0.3,3.7-5,4.3-5.9l0,0C19,22.7,25,13.6,25,13.6
							S21.7,6.5,14.1,6.5"/>
					</g>
				</g>
			</g>
		</g>
	</g>
</g>
</svg>
