<?xml version="1.0" encoding="UTF-8"?>
<svg viewBox="0 0 40 40" version="1.1" xmlns="http://www.w3.org/2000/svg" xmlns:xlink="http://www.w3.org/1999/xlink">
    <path d="M20,1 C26.5310614,1 32.0872337,5.17399624 34.1464405,10.9999123 L34.5251,11 C36.4442343,11 38,12.5557657 38,14.4749 L38,14.4749 L38,22.5251 C38,24.2827504 36.6950362,25.7356101 35.0011231,25.9676648 L35,26 L34.8613441,26.000674 C33.8638096,33.166959 27.604185,39 20,39 L20,35 C26.0582361,35 31,29.8719659 31,24 L31,16 C31,9.92486775 26.0751322,5 20,5 C13.9248678,5 9,9.92486775 9,16 L9,16 L9,26 L5,26 L4.99987665,25.9678016 C3.30547727,25.7361818 2,24.2830962 2,22.5251 L2,14.4749 C2,12.5557657 3.55576572,11 5.4749,11 L5.85355954,10.9999123 C7.91276634,5.17399624 13.4689386,1 20,1 Z M25.8977535,22.3311523 L28.1022465,25.6688477 C25.8267251,27.1717923 22.9844332,28 19.998132,28 C17.0138032,28 14.1732745,27.1728907 11.8984523,25.6717754 L11.8984523,25.6717754 L14.1015477,22.3331574 C15.7127071,23.3963332 17.7858708,24 19.998132,24 C22.2118219,24 24.2862118,23.3955492 25.8977535,22.3311523 L25.8977535,22.3311523 Z" id="形状结合"></path>
    <path d="M20,1 C26.5310614,1 32.0872337,5.17399624 34.1464405,10.9999123 L34.5251,11 C36.4442343,11 38,12.5557657 38,14.4749 L38,14.4749 L38,22.5251 C38,24.2827504 36.6950362,25.7356101 35.0011231,25.9676648 L35,26 L34.8613441,26.000674 C33.8638096,33.166959 27.604185,39 20,39 L20,35 C26.0582361,35 31,29.8719659 31,24 L31,16 C31,9.92486775 26.0751322,5 20,5 C13.9248678,5 9,9.92486775 9,16 L9,16 L9,26 L5,26 L4.99987665,25.9678016 C3.30547727,25.7361818 2,24.2830962 2,22.5251 L2,14.4749 C2,12.5557657 3.55576572,11 5.4749,11 L5.85355954,10.9999123 C7.91276634,5.17399624 13.4689386,1 20,1 Z M25.8977535,22.3311523 L28.1022465,25.6688477 C25.8267251,27.1717923 22.9844332,28 19.998132,28 C17.0138032,28 14.1732745,27.1728907 11.8984523,25.6717754 L11.8984523,25.6717754 L14.1015477,22.3331574 C15.7127071,23.3963332 17.7858708,24 19.998132,24 C22.2118219,24 24.2862118,23.3955492 25.8977535,22.3311523 L25.8977535,22.3311523 Z" id="形状结合"></path>
</svg>