<svg id="图层_1" data-name="图层 1" xmlns="http://www.w3.org/2000/svg" viewBox="0 0 52 52">
    <title>ic_information</title>
    <path d="M30,4A26,26,0,1,0,56,30,26,26,0,0,0,30,4Zm0,50A24,24,0,1,1,54,30,24,24,0,0,1,30,54Z"
          transform="translate(-4 -4)"/>
    <path d="M29.81,16.73A7.33,7.33,0,0,0,22.16,24h3a4.35,4.35,0,0,1,4.66-4.31c3.71,0,5,2.32,5,4.31,0,1.7-.91,2.61-2.39,4-.34.31-.67.61-1,.92a8.92,8.92,0,0,0-3.16,7h3c0-2.22.7-3.3,2.28-4.88.28-.28.58-.55.88-.82,1.5-1.36,3.37-3.06,3.37-6.18C37.84,20.52,35.33,16.73,29.81,16.73Z"
          transform="translate(-4 -4)"/>
    <rect x="24.15" y="35.78" width="3.31" height="3.49"/>
</svg>