<?xml version="1.0" encoding="utf-8"?>
<!-- Generator: Adobe Illustrator 18.0.0, SVG Export Plug-In . SVG Version: 6.00 Build 0)  -->
<!DOCTYPE svg PUBLIC "-//W3C//DTD SVG 1.1//EN" "http://www.w3.org/Graphics/SVG/1.1/DTD/svg11.dtd">
<svg version="1.1" id="图层_1" xmlns="http://www.w3.org/2000/svg" xmlns:xlink="http://www.w3.org/1999/xlink" x="0px" y="0px"
	 viewBox="0 0 24 24" enable-background="new 0 0 24 24" xml:space="preserve">
<path fill="#040000" d="M20.4,17.8c0,0.1,0.1,0.1,0.1,0.1s0.1-0.1,0.1-0.1c0-0.1-0.1-0.1-0.1-0.1c0,0,0,0,0,0
	C20.5,17.7,20.4,17.8,20.4,17.8C20.4,17.8,20.4,17.8,20.4,17.8z M17.2,21.2c0,0.2,0.1,0.3,0.3,0.3s0.3-0.1,0.3-0.3s-0.1-0.3-0.3-0.3
	S17.2,21,17.2,21.2z M12.8,22.9c0,0.2,0.2,0.4,0.4,0.4s0.4-0.2,0.4-0.4s-0.2-0.4-0.4-0.4S12.8,22.7,12.8,22.9z M8.1,22.7
	c0,0.3,0.3,0.6,0.6,0.6c0.3,0,0.6-0.3,0.6-0.6S9,22.1,8.7,22.1C8.4,22.1,8.1,22.3,8.1,22.7L8.1,22.7z M4,20.5c0,0.4,0.3,0.7,0.7,0.7
	c0.4,0,0.7-0.3,0.7-0.7c0-0.4-0.3-0.7-0.7-0.7C4.3,19.8,4,20.1,4,20.5z M1.1,16.9c0,0.5,0.4,0.9,0.9,0.9s0.9-0.4,0.9-0.9
	S2.4,16,2,16S1.1,16.4,1.1,16.9z M0,12.4c0,0.6,0.5,1,1,1s1-0.5,1-1s-0.5-1-1-1S0,11.9,0,12.4z M0.9,8c0,0.6,0.5,1.2,1.2,1.2
	S3.2,8.7,3.2,8S2.7,6.8,2.1,6.8S0.9,7.4,0.9,8z M3.6,4.4c0,0.7,0.6,1.3,1.3,1.3s1.3-0.6,1.3-1.3S5.6,3.1,4.9,3.1S3.6,3.7,3.6,4.4z
	 M7.5,2.4c0,0.8,0.7,1.5,1.5,1.5c0.8,0,1.5-0.7,1.5-1.5S9.7,0.9,8.9,0.9C8.1,0.9,7.5,1.6,7.5,2.4z M11.9,2.3c0,0.9,0.7,1.6,1.6,1.6
	s1.6-0.7,1.6-1.6s-0.7-1.6-1.6-1.6S11.9,1.4,11.9,2.3z M15.9,4.1c0,1,0.8,1.7,1.7,1.7s1.7-0.8,1.7-1.7s-0.8-1.7-1.7-1.7
	S15.9,3.1,15.9,4.1z M18.8,7.5c0,1,0.8,1.9,1.9,1.9s1.9-0.8,1.9-1.9s-0.8-1.9-1.9-1.9S18.8,6.4,18.8,7.5L18.8,7.5z M19.9,11.9
	c0,1.1,0.9,2,2,2s2-0.9,2-2s-0.9-2-2-2S19.9,10.8,19.9,11.9z"/>
</svg>
