<?xml version="1.0" encoding="utf-8"?>
<!-- Generator: Adobe Illustrator 23.0.0, SVG Export Plug-In . SVG Version: 6.00 Build 0)  -->
<svg version="1.1" id="图层_1" xmlns="http://www.w3.org/2000/svg" xmlns:xlink="http://www.w3.org/1999/xlink" x="0px" y="0px"
	 viewBox="0 0 60 60" style="enable-background:new 0 0 60 60;" xml:space="preserve">
<g>
	<g>
		<defs>
			<path id="SVGID_1_" d="M30,32c5.9,0,10.5-4.4,10.5-10c0-5.6-4.6-10-10.5-10c-5.9,0-10.5,4.4-10.5,10C19.5,27.6,24.1,32,30,32z
				 M53.1,22L53.1,22c0,2.8-0.6,5.6-1.7,8C48.5,38.2,41.3,48.2,30,60C18.7,48.2,11.5,38.2,8.6,30c-1-2.4-1.7-5.2-1.7-8l0,0
				C6.9,9.8,17.2,0,30,0S53.1,9.8,53.1,22z"/>
		</defs>
		<use xlink:href="#SVGID_1_"  style="overflow:visible;"/>
		<clipPath id="SVGID_2_">
			<use xlink:href="#SVGID_1_"  style="overflow:visible;"/>
		</clipPath>
	</g>
</g>
</svg>
