<?xml version="1.0" encoding="utf-8"?>
<!-- Generator: Adobe Illustrator 23.0.0, SVG Export Plug-In . SVG Version: 6.00 Build 0)  -->
<svg version="1.1" id="图层_1" xmlns="http://www.w3.org/2000/svg" xmlns:xlink="http://www.w3.org/1999/xlink" x="0px" y="0px"
	 viewBox="0 0 200 200" style="enable-background:new 0 0 200 200;" xml:space="preserve">
<style type="text/css">
	.st0{fill:#FFFFFF;}
	.st1{fill:#666666;}
</style>
<circle class="st0" cx="100" cy="100" r="100"/>
<path class="st1" d="M175.4,95.4h-9.4c-2.2-32.9-28.6-59.3-61.5-61.5v-7.3c0-2.5-2.1-4.6-4.6-4.6s-4.6,2.1-4.6,4.6v7.3
	c-32.9,2.2-59.3,28.6-61.5,61.5h-9.4c-2.5,0-4.6,2.1-4.6,4.6s2.1,4.6,4.6,4.6h9.4c2.2,32.9,28.6,59.3,61.5,61.5v7.3
	c0,2.5,2.1,4.6,4.6,4.6s4.6-2.1,4.6-4.6v-7.3c32.9-2.2,59.3-28.6,61.5-61.5h9.4c2.5,0,4.6-2.1,4.6-4.6S177.9,95.4,175.4,95.4z
	 M104.6,156.9v-29.2c0-2.5-2.1-4.6-4.6-4.6s-4.6,2.1-4.6,4.6v29.2c-27.9-2.2-50.1-24.5-52.3-52.3h27.2c2.5,0,4.6-2.1,4.6-4.6
	c0-2.5-2.1-4.6-4.6-4.6H43.1c2.2-27.9,24.5-50.1,52.3-52.3v29.2c0,2.5,2.1,4.6,4.6,4.6s4.6-2.1,4.6-4.6V43.1
	c27.9,2.2,50.1,24.5,52.3,52.3h-27.1c-2.5,0-4.6,2.1-4.6,4.6s2.1,4.6,4.6,4.6h27.2C154.7,132.4,132.4,154.7,104.6,156.9z"/>
</svg>
