<?xml version="1.0" encoding="UTF-8"?>
<svg width="30px" height="30px" viewBox="0 0 30 30" version="1.1" xmlns="http://www.w3.org/2000/svg" xmlns:xlink="http://www.w3.org/1999/xlink">
    <!-- Generator: Sketch 63.1 (92452) - https://sketch.com -->
    <title>免押</title>
    <desc>Created with Sketch.</desc>
    <g id="M" stroke="none" stroke-width="1" fill="none" fill-rule="evenodd">
        <g id="列表" transform="translate(-178.000000, -295.000000)" fill="#03A0E9" fill-rule="nonzero">
            <g id="编组-18" transform="translate(0.000000, 257.000000)">
                <g id="分组-8" transform="translate(160.000000, 23.000000)">
                    <g id="编组-35" transform="translate(18.000000, 15.000000)">
                        <path d="M15,0 C23.2842712,0 30,6.71572875 30,15 C30,17.3948607 29.4387646,19.6586379 28.4406444,21.666981 L18.9285714,21.666452 C18.5714286,21.666452 18.2142857,21.3697962 18.2142857,20.9544779 L18.2142857,20.9544779 L18.2142857,17.6995685 L22.2023809,17.6995685 C22.9761905,17.6995685 23.5119048,17.1062567 23.5119048,16.3942826 L23.5119048,16.3942826 L23.5119048,12.8344121 C23.5119048,12.122438 22.9166667,11.5291262 22.2023809,11.5291262 L22.2023809,11.5291262 L20.8928571,11.5291262 L22.4404762,8.68122977 C22.5595238,8.3845739 22.5595238,8.08791802 22.3809524,7.79126214 C22.2023809,7.55393745 21.9642857,7.37594391 21.6071429,7.37594391 L21.6071429,7.37594391 L11.4880952,7.37594391 C11.7857143,6.9012945 12.0238095,6.36731392 12.3214286,5.83333333 L12.3214286,5.83333333 L9.22619047,5.83333333 C8.33333333,7.55393743 7.38095238,9.03721683 5.83333333,11.0544768 L5.83333333,11.0544768 L9.04761905,11.0544768 C9.70238094,10.2831715 10.0386322,9.93430183 10.651799,9.12331894 L10.651799,9.12331894 L18.0203152,9.10869688 C18.1988866,9.10869687 18.3179342,9.16802805 18.377458,9.2866904 C18.4369819,9.40535275 18.4369819,9.5240151 18.377458,9.64267745 L18.377458,9.64267745 L17.1446114,11.5884574 L7.85714286,11.5884574 C7.14285714,11.5884574 6.54761905,12.1817692 6.54761905,12.8937433 L6.54761905,12.8937433 L6.54761905,16.4536138 C6.54761905,17.1655879 7.14285714,17.7588997 7.85714286,17.7588997 L7.85714286,17.7588997 L12.2619048,17.7588997 C10.8928571,19.894822 8.75,21.3781014 6.19047619,21.9714132 L6.19047619,21.9714132 L6.19047619,24.1666667 C10.297619,23.5140237 13.5714286,21.4374326 15.2380952,18.1148867 L15.2380952,18.1148867 L15.2380952,22.8613808 C15.2380952,23.5140237 15.8333333,24.1073355 16.5476191,24.1073355 L16.5476191,24.1073355 L18.333,24.107 L18.3333333,24.1107504 L26.9170396,24.1108403 C24.1757345,27.6910662 19.8575074,30 15,30 C6.71572875,30 0,23.2842712 0,15 C0,6.71572875 6.71572875,0 15,0 Z M19.8214286,13.0208444 C20.1785714,13.0208444 20.5357143,13.3175002 20.5357143,13.7328185 L20.5357143,13.7328185 L20.5357143,15.634421 C20.5357143,15.9904081 20.2380952,16.3463952 19.8214286,16.3463952 L19.8214286,16.3463952 L15.8928571,16.3463952 C16.3095238,15.2191028 16.4880952,14.4447926 16.5476191,13.0208444 L16.5476191,13.0208444 Z M13.75,13.0636754 C13.75,14.4876237 13.3928571,15.1409707 12.9166667,16.3275942 L12.9166667,16.3275942 L10.297619,16.3275942 C9.9404762,16.3275942 9.58333333,16.0309383 9.58333333,15.6156201 L9.58333333,15.6156201 L9.58333333,13.7756496 C9.58333333,13.4196625 9.88095238,13.0636754 10.297619,13.0636754 L10.297619,13.0636754 Z" id="形状结合"></path>
                    </g>
                </g>
            </g>
        </g>
    </g>
</svg>