<?xml version="1.0" encoding="utf-8"?>
<!-- Generator: Adobe Illustrator 23.0.1, SVG Export Plug-In . SVG Version: 6.00 Build 0)  -->
<svg version="1.1" id="图层_1" xmlns="http://www.w3.org/2000/svg" xmlns:xlink="http://www.w3.org/1999/xlink" x="0px" y="0px"
	 viewBox="0 0 40 40" style="enable-background:new 0 0 40 40;" xml:space="preserve">
<style type="text/css">
	.st0{fill:none;}
	.st1{fill-rule:evenodd;clip-rule:evenodd;}
</style>
<g>
	<path class="st1" d="M4,24c-2.21,0-4-1.79-4-4s1.79-4,4-4s4,1.79,4,4S6.21,24,4,24z M20,24c-2.21,0-4-1.79-4-4s1.79-4,4-4
		s4,1.79,4,4S22.21,24,20,24z M36,24c-2.21,0-4-1.79-4-4s1.79-4,4-4s4,1.79,4,4S38.21,24,36,24z"/>
</g>
</svg>
