<?xml version="1.0" encoding="utf-8"?>
<!-- Generator: Adobe Illustrator 23.0.0, SVG Export Plug-In . SVG Version: 6.00 Build 0)  -->
<svg version="1.1" id="图层_1" xmlns="http://www.w3.org/2000/svg" xmlns:xlink="http://www.w3.org/1999/xlink" x="0px" y="0px"
	 viewBox="0 0 52 52" style="enable-background:new 0 0 52 52;" xml:space="preserve">
<g>
	<defs>
		<path id="SVGID_1_" d="M36,36.9c-1,1-2.6,1-3.5,0l-8.4-8.4c-0.4-0.4-0.6-0.9-0.6-1.4l0-14.6c0-1.4,1.1-2.5,2.5-2.5
			s2.5,1.1,2.5,2.5l0,13.4l7.5,7.5C37,34.3,37,35.9,36,36.9z M26,51C12.2,51,1,39.8,1,26S12.2,1,26,1s25,11.2,25,25S39.8,51,26,51z
			 M26,49c12.7,0,23-10.3,23-23S38.7,3,26,3S3,13.3,3,26S13.3,49,26,49z"/>
	</defs>
	<use xlink:href="#SVGID_1_"  style="overflow:visible;"/>
	<clipPath id="SVGID_2_">
		<use xlink:href="#SVGID_1_"  style="overflow:visible;"/>
	</clipPath>
</g>
</svg>
