<?xml version="1.0" encoding="utf-8"?>
<!-- Generator: Adobe Illustrator 20.0.0, SVG Export Plug-In . SVG Version: 6.00 Build 0)  -->
<svg version="1.1" id="Orders_1_" xmlns="http://www.w3.org/2000/svg"  x="0px" y="0px"
	 viewBox="0 0 36 36" enable-background="new 0 0 36 36" xml:space="preserve">
<g id="Orders">
	<path d="M11,15h6c0.552,0,1-0.448,1-1s-0.448-1-1-1h-6c-0.552,0-1,0.448-1,1S10.448,15,11,15z"/>
	<path d="M25,19H11c-0.552,0-1,0.447-1,1s0.448,1,1,1h14c0.553,0,1-0.447,1-1S25.553,19,25,19z"/>
	<path d="M25,25H11c-0.552,0-1,0.447-1,1s0.448,1,1,1h14c0.553,0,1-0.447,1-1S25.553,25,25,25z"/>
	<path d="M28,5h-5c0-1.103-0.897-2-2-2h-6c-1.103,0-2,0.897-2,2H8C6.346,5,5,6.346,5,8v22c0,1.654,1.346,3,3,3h20
		c1.654,0,3-1.346,3-3V8C31,6.346,29.654,5,28,5z M15,6V5h6l0,0.998C21,5.998,21,5.999,21,6v1h-6V6z M29,30c0,0.552-0.448,1-1,1H8
		c-0.551,0-1-0.448-1-1V8c0-0.551,0.449-1,1-1h5c0,1.103,0.897,2,2,2h6c1.103,0,2-0.897,2-2h5c0.552,0,1,0.449,1,1V30z"/>
</g>
</svg>
