<?xml version="1.0" encoding="utf-8"?>
<!-- Generator: Adobe Illustrator 23.0.0, SVG Export Plug-In . SVG Version: 6.00 Build 0)  -->
<svg version="1.1" id="图层_1" xmlns="http://www.w3.org/2000/svg" xmlns:xlink="http://www.w3.org/1999/xlink" x="0px" y="0px"
	 viewBox="0 0 52 52" style="enable-background:new 0 0 52 52;" xml:space="preserve">
<style type="text/css">
	.st0{fill:#51B778;}
</style>
<path class="st0" d="M26,1C12.2,1,1,12.2,1,26s11.2,25,25,25s25-11.2,25-25S39.8,1,26,1z M26,49C13.3,49,3,38.7,3,26
	C3,13.3,13.3,3,26,3c7.5,0,14.2,3.6,18.4,9.2L26.6,30.1l-9.4-9.4L14.8,23l9.4,9.4l2.4,2.4l2.4-2.4l17.3-17.3C48,18.4,49,22.1,49,26
	C49,38.7,38.7,49,26,49z"/>
</svg>
