<?xml version="1.0" encoding="utf-8"?>
<!-- Generator: Adobe Illustrator 23.0.0, SVG Export Plug-In . SVG Version: 6.00 Build 0)  -->
<svg version="1.1" id="图层_1" xmlns="http://www.w3.org/2000/svg" xmlns:xlink="http://www.w3.org/1999/xlink" x="0px" y="0px"
	 viewBox="0 0 52 52" style="enable-background:new 0 0 52 52;" xml:space="preserve">
<style type="text/css">
	.st0{fill:#040000;}
</style>
<g>
	<path class="st0" d="M26,1C12.2,1,1,12.2,1,26s11.2,25,25,25s25-11.2,25-25S39.8,1,26,1z M26,49C13.3,49,3,38.7,3,26S13.3,3,26,3
		s23,10.3,23,23S38.7,49,26,49z"/>
	<circle class="st0" cx="15" cy="20" r="3"/>
	<path class="st0" d="M36.5,34h-21c-0.8,0-1.5,0.7-1.5,1.5s0.7,1.5,1.5,1.5h21c0.8,0,1.5-0.7,1.5-1.5S37.3,34,36.5,34z"/>
	<circle class="st0" cx="37" cy="20" r="3"/>
</g>
</svg>
