<?xml version="1.0" encoding="utf-8"?>
<!-- Generator: Adobe Illustrator 19.0.0, SVG Export Plug-In . SVG Version: 6.00 Build 0)  -->
<svg version="1.1" id="图层_1" xmlns="http://www.w3.org/2000/svg" xmlns:xlink="http://www.w3.org/1999/xlink" x="0px" y="0px"
	 viewBox="-189 88 21 26" style="enable-background:new -189 88 21 26;" xml:space="preserve">
<title>Shape</title>
<desc>Created with Sketch.</desc>
<path d="M-169.5,91.2c-0.2,0-0.4,0-0.7,0h0c-5.6,0-8.1-2.6-8.1-2.6l-0.6-0.6l-0.6,0.6c0,0-2.6,2.8-8.8,2.6l-0.8,0v11.7
	c0,3.1,1,7.5,9.9,11l0.3,0.1l0.3-0.1c8.9-3.4,9.9-7.9,9.9-11V91.2L-169.5,91.2z M-179.9,106.4l-5.9-5.2l1.6-1.3l3.1,2.3
	c0,0,4.3-4.5,8.5-6.6l0.6,0.7C-171.9,96.3-177.2,100.6-179.9,106.4z"/>
</svg>
