<?xml version="1.0" encoding="utf-8"?>
<!-- Generator: Adobe Illustrator 23.0.0, SVG Export Plug-In . SVG Version: 6.00 Build 0)  -->
<svg version="1.1" id="图层_1" xmlns="http://www.w3.org/2000/svg" xmlns:xlink="http://www.w3.org/1999/xlink" x="0px" y="0px"
	 viewBox="0 0 52 52" style="enable-background:new 0 0 52 52;" xml:space="preserve">
<path d="M0.1,39.1c0.2-1.9,1.1-3.6,2.5-4.8s3.3-1.8,5.2-1.6c0.1,0,0.2,0,0.3,0l11.5,2.9c0.7-1.7,2.2-3,4.2-3.2l13.6-2.1
	c1.4-0.2,2.8,0.2,3.9,1c0.6,0.5,1.2,1.1,1.5,1.8l7.3-1.6c0.9-0.2,1.7,0.3,1.9,1.2s-0.3,1.7-1.2,1.9l-8.8,2c-0.4,0.1-0.9,0-1.3-0.2
	c-0.4-0.3-0.6-0.7-0.7-1.1c-0.1-0.5-0.4-1-0.8-1.4c-0.4-0.3-1-0.5-1.5-0.4l-13.6,2.1c-1.1,0.2-1.9,1.2-1.8,2.3
	c0.2,1.1,1.2,1.9,2.3,1.8l13.2-1.9c0.9-0.1,1.7,0.5,1.8,1.4c0.1,0.9-0.5,1.7-1.4,1.8l-13.1,1.9c-0.2,0-0.5,0-0.7,0
	c-2.4,0-4.6-1.7-5.1-4l-11.9-3c-1-0.1-1.9,0.2-2.7,0.9c-0.5,0.4-0.8,0.9-1.1,1.5l21.1,8.9c0.3,0.1,0.6,0.4,0.7,0.6
	c1.6,1.2,3.9,1.1,5.4-0.4c0.1-0.1,0.2-0.2,0.3-0.2c0.2-0.2,0.5-0.3,0.7-0.4l18.3-4.1c0.9-0.2,1.7,0.3,1.9,1.2s-0.3,1.7-1.2,1.9
	L33,49.9c-1.4,1.3-3.2,2-5,2s-3.6-0.6-5-1.9L1.1,40.7C0.5,40.4,0.1,39.8,0.1,39.1z"/>
<path d="M31.5,26.4h-10c-0.7,0-1.2-0.6-1.2-1.2V12.4h-3.6c-0.5,0-1-0.3-1.2-0.8s-0.1-1,0.3-1.4l9.9-9.9c0.5-0.5,1.3-0.5,1.8,0
	l9.9,9.9c0.4,0.4,0.5,0.9,0.3,1.4s-0.6,0.8-1.2,0.8h-3.6v12.8C32.7,25.9,32.2,26.4,31.5,26.4z M22.7,23.9h7.5V11.2
	c0-0.7,0.6-1.2,1.2-1.2h1.9l-6.8-7l-6.9,6.9h1.9c0.7,0,1.2,0.6,1.2,1.2V23.9z"/>
</svg>
