<?xml version="1.0" encoding="utf-8"?>
<!-- Generator: Adobe Illustrator 23.0.0, SVG Export Plug-In . SVG Version: 6.00 Build 0)  -->
<svg version="1.1" id="图层_1" xmlns="http://www.w3.org/2000/svg" xmlns:xlink="http://www.w3.org/1999/xlink" x="0px" y="0px"
	 viewBox="0 0 52 52" style="enable-background:new 0 0 52 52;" xml:space="preserve">
<path d="M48.3,38.5H3.7c-0.2,0-0.4-0.2-0.4-0.3l1-16.3c0-0.2,0.2-0.4,0.4-0.4h42.6c0.2,0,0.4,0.2,0.4,0.5l1,16
	C48.7,38.3,48.5,38.5,48.3,38.5z M43.8,45.7c0,0.5-0.4,1-0.9,1h-2.7c-0.5,0-0.9-0.4-0.9-1v-3.9h4.6L43.8,45.7L43.8,45.7z M12.7,45.7
	c0,0.5-0.4,1-0.9,1H9c-0.5,0-0.9-0.4-0.9-1v-3.9h4.5V45.7z M10.7,5.3h30.5c0.4,0,0.6,0.3,0.6,0.8l1,12.1H9L10,6
	C10,5.6,10.3,5.3,10.7,5.3z M47.6,18.3l3.5-1.7c0.8-0.4,1.2-1.4,0.8-2.2c-0.4-0.8-1.3-1.2-2.2-0.8l-3.8,1.8L45.1,6
	c0-2.2-1.7-4-3.9-4H10.7C8.5,2,6.8,3.8,6.8,5.9L6,15.4l-3.6-1.7c-0.8-0.4-1.8,0-2.2,0.8c-0.4,0.8,0,1.8,0.8,2.2l3.4,1.6
	c-1.9,0.1-3.3,1.7-3.3,3.6L0,38.1c0,2,1.6,3.7,3.6,3.7h1.2v3.9C4.9,48,6.7,50,9,50h2.7c2.3,0,4.2-1.9,4.2-4.3v-3.9H36v3.9
	c0,2.3,1.9,4.3,4.2,4.3h2.7c2.3,0,4.2-1.9,4.2-4.3v-3.9h1.3c2,0,3.6-1.7,3.6-3.8l-1-16C50.9,20,49.5,18.4,47.6,18.3z"/>
<path d="M38.5,33.1c-1.3,0-2.4-1.1-2.4-2.4c0-1.3,1.1-2.4,2.4-2.4c1.3,0,2.3,1.1,2.3,2.4C40.8,32,39.8,33.1,38.5,33.1z M38.5,25
	c-3.1,0-5.6,2.6-5.6,5.7c0,3.1,2.5,5.7,5.6,5.7c3.1,0,5.6-2.6,5.6-5.7C44.1,27.5,41.5,25,38.5,25z M13,33.1c-1.3,0-2.3-1.1-2.3-2.4
	c0-1.3,1.1-2.4,2.3-2.4s2.3,1.1,2.3,2.4C15.4,32,14.3,33.1,13,33.1z M13,25c-3.1,0-5.6,2.6-5.6,5.7c0,3.1,2.5,5.7,5.6,5.7
	c3.1,0,5.6-2.6,5.6-5.7C18.6,27.5,16.1,25,13,25z"/>
</svg>
