<?xml version="1.0" encoding="utf-8"?>
<!-- Generator: Adobe Illustrator 23.0.0, SVG Export Plug-In . SVG Version: 6.00 Build 0)  -->
<svg version="1.1" id="图层_1" xmlns="http://www.w3.org/2000/svg" xmlns:xlink="http://www.w3.org/1999/xlink" x="0px" y="0px"
	 viewBox="0 0 52 52" style="enable-background:new 0 0 52 52;" xml:space="preserve">
<path d="M45,48.7H6.7V45l15.7-7.5c0.4-0.2,0.7-0.6,0.9-1.1c0.1-0.5,0-1-0.2-1.3l-5.3-7.5v-9.4c0-4.6,3.7-8.1,8.4-8.1
	s8.4,3.6,8.4,8.1v9.4l-5.1,7.5c-0.3,0.4-0.3,0.9-0.2,1.3c0.1,0.5,0.4,0.8,0.8,1L45,45L45,48.7z M47.3,42.6L33,35.4l4.4-6.4
	c0.2-0.3,0.3-0.6,0.3-0.9v-9.9c0-6.4-5.1-11.4-11.6-11.4c-6.5,0-11.6,5-11.6,11.4v9.9c0,0.3,0.1,0.7,0.3,0.9l4.5,6.3L4.4,42.6
	c-0.6,0.3-0.9,0.8-0.9,1.5v6.3c0,0.9,0.7,1.6,1.6,1.6h41.4c0.9,0,1.6-0.7,1.6-1.6V44C48.2,43.4,47.8,42.9,47.3,42.6z"/>
<path d="M45.3,25.9c0,1.3-0.7,2.4-1.8,3V17.2c1.1,0.6,1.8,1.7,1.8,3V25.9z M7,25.9v-5.8c0-1.3,0.7-2.4,1.8-3v11.8
	C7.8,28.4,7,27.2,7,25.9z M43.1,13.7c-1.5-7.9-8.4-13.6-17-13.6c-8.5,0-15.4,5.8-17,13.6c-3.1,0.6-5.4,3.3-5.4,6.5v5.8
	c0,3.1,2.2,5.7,5.1,6.4v0.3h3.2V17c0-7.7,6.2-13.7,14.1-13.7c7.9,0,14.1,6,14.1,13.7v15.6h3.2v-0.3c2.9-0.7,5-3.3,5-6.4v-5.8
	C48.5,16.9,46.2,14.2,43.1,13.7z"/>
</svg>
