<?xml version="1.0" encoding="utf-8"?>
<!-- Generator: Adobe Illustrator 23.0.0, SVG Export Plug-In . SVG Version: 6.00 Build 0)  -->
<svg version="1.1" id="图层_1" xmlns="http://www.w3.org/2000/svg" xmlns:xlink="http://www.w3.org/1999/xlink" x="0px" y="0px"
	 viewBox="0 0 24 24" style="enable-background:new 0 0 24 24;" xml:space="preserve">
<path d="M16.7,1.9C12.8-1.3,8.9,0,7.6,2.8c-0.2,0.5-1.4,3.7,1.9,7.3c0,0,0,0,0,0c0.1,0.1,0.1,0.1,0.2,0.2c1.7,1.8,4,3,4,5.5
	c0,3.2-3.3,5.7-6.7,3.7c0,0-0.5-0.3-0.9-0.8c-0.5-0.6-3.1-3.9,2.3-7.9c-0.7-0.7-2.7-2.9-2.4-6.3c-3.1,2.9-4.1,6-4.1,8.9
	c0,6.6,4.6,10.8,10,10.6c6.3-0.2,10.3-5.1,10.3-11.4C22.2,9,20.3,4.9,16.7,1.9z"/>
</svg>
