<?xml version="1.0" encoding="utf-8"?>
<!-- Generator: Adobe Illustrator 19.0.0, SVG Export Plug-In . SVG Version: 6.00 Build 0)  -->
<svg version="1.1" id="图层_1" xmlns="http://www.w3.org/2000/svg" xmlns:xlink="http://www.w3.org/1999/xlink" x="0px" y="0px"
	 viewBox="-79 4 41 38" style="enable-background:new -79 4 41 38;" xml:space="preserve">
<title>ic_buy</title>
<desc>Created with Sketch.</desc>
<g>
	<circle cx="-67" cy="40" r="2"/>
	<circle cx="-50" cy="40" r="2"/>
	<path d="M-42,10h-29c-0.2,0-0.3,0.1-0.5,0.1l-0.2-1.6C-71.9,5.9-74,4-76.6,4H-78c-0.6,0-1,0.4-1,1s0.4,1,1,1h1.4
		c1.5,0,2.8,1.2,3,2.7l2.4,23.6c0.2,1.5,1.4,2.7,3,2.7H-46c0.6,0,1-0.4,1-1s-0.4-1-1-1h-22.2c-0.5,0-0.9-0.4-1-0.9l-0.4-4.3
		c0.2,0.1,0.4,0.2,0.6,0.2c0,0,0,0,0,0l22.7-0.9c1.2,0,2.2-0.8,2.7-1.9l4.4-11.1C-39,13.8-39,13.4-39,13C-39,11.3-40.3,10-42,10z
		 M-41,13.4l-4.4,11.1c-0.1,0.4-0.5,0.6-0.9,0.6L-69,26c-0.3,0-0.6,0.2-0.7,0.4l-1.5-14.5c0.1,0,0.2,0.1,0.3,0.1h29c0.6,0,1,0.4,1,1
		C-41,13.1-41,13.3-41,13.4z"/>
</g>
</svg>
