<?xml version="1.0" encoding="utf-8"?>
<!-- Generator: Adobe Illustrator 23.0.0, SVG Export Plug-In . SVG Version: 6.00 Build 0)  -->
<svg version="1.1" id="图层_1" xmlns="http://www.w3.org/2000/svg" xmlns:xlink="http://www.w3.org/1999/xlink" x="0px" y="0px"
	 viewBox="0 0 52 52" style="enable-background:new 0 0 52 52;" xml:space="preserve">
<g>
	<path d="M26,1C12.2,1,1,12.2,1,26s11.2,25,25,25s25-11.2,25-25S39.8,1,26,1z M26,49C13.3,49,3,38.7,3,26S13.3,3,26,3s23,10.3,23,23
		S38.7,49,26,49z"/>
	<circle cx="15" cy="20" r="3"/>
	<circle cx="37" cy="20" r="3"/>
	<path d="M40.2,31.1c-0.7-0.4-1.6,0-2,0.7c-2.2,4.7-7,7.7-12.2,7.7s-9.8-2.9-12.1-7.6c-0.4-0.7-1.3-1.1-2-0.7
		c-0.7,0.4-1.1,1.3-0.7,2C14,39,19.7,42.5,26,42.5c6.3,0,12.2-3.7,14.9-9.4C41.3,32.3,41,31.4,40.2,31.1z"/>
</g>
</svg>
