<?xml version="1.0" encoding="UTF-8"?>
<svg width="46px" height="42px" viewBox="0 0 46 42" version="1.1" xmlns="http://www.w3.org/2000/svg" xmlns:xlink="http://www.w3.org/1999/xlink">
    <!-- Generator: Sketch 63.1 (92452) - https://sketch.com -->
    <title>wx_icon</title>
    <desc>Created with Sketch.</desc>
    <g id="页面-1" stroke="none" stroke-width="1" fill="none" fill-rule="evenodd">
        <g id="芝麻/微信支付分免押" transform="translate(-431.000000, -1018.000000)" fill="#FFFFFF" fill-rule="nonzero">
            <g id="按钮2" transform="translate(30.000000, 903.000000)">
                <g id="编组-4" transform="translate(401.000000, 115.000000)">
                    <path d="M16.7385167,26.2543448 C16.5272238,26.3609032 16.3107775,26.4116453 16.0479498,26.4116453 C15.4604526,26.4116453 14.9811786,26.0970443 14.7131974,25.6251427 L14.6049742,25.4171001 L10.3945776,16.3850057 C10.3430428,16.2784473 10.3430428,16.1769631 10.3430428,16.0704047 C10.3430428,15.6492452 10.6625588,15.3346442 11.090298,15.3346442 C11.250056,15.3346442 11.409814,15.3853863 11.569572,15.4919447 L16.5272238,18.9576303 C16.8982747,19.165673 17.3260139,19.3229735 17.8052879,19.3229735 C18.0732691,19.3229735 18.3360968,19.2722314 18.604078,19.165673 L41.8514452,8.98173284 C37.6925835,4.15108461 30.8178355,1 23.0309209,1 C10.3430428,1 0,9.4536344 0,19.8963593 C0,25.5642522 3.09209052,30.7095015 7.94151916,34.1751871 C8.31257002,34.439046 8.5805512,34.9109476 8.5805512,35.3828492 C8.5805512,35.5401497 8.52901636,35.6974502 8.47232803,35.8547507 C8.10127717,37.2704554 7.45709164,39.5842953 7.45709164,39.6857795 C7.4055568,39.84308 7.34886847,40.0511227 7.34886847,40.2642395 C7.34886847,40.685399 7.66838449,41 8.09612368,41 C8.25588169,41 8.4156397,40.9492579 8.52386287,40.8426995 L13.5330495,37.9554738 C13.9041004,37.7474312 14.3318396,37.5901307 14.7595788,37.5901307 C14.9708716,37.5901307 15.2388528,37.6408728 15.4501456,37.6966891 C17.794981,38.3766333 20.3562626,38.7470506 22.9690791,38.7470506 C35.6569572,38.7470506 46,30.2934162 46,19.8506914 C46,16.6996067 45.0414519,13.7108969 43.3871835,11.0824559 L16.8982747,26.1477864 L16.7385167,26.2543448 L16.7385167,26.2543448 Z" id="路径"></path>
                </g>
            </g>
        </g>
    </g>
</svg>