<?xml version="1.0" encoding="UTF-8"?>
<svg width="46px" height="42px" viewBox="0 0 46 42" version="1.1" xmlns="http://www.w3.org/2000/svg" xmlns:xlink="http://www.w3.org/1999/xlink">
    <!-- Generator: Sketch 63.1 (92452) - https://sketch.com -->
    <title>zm_icon</title>
    <desc>Created with Sketch.</desc>
    <g id="页面-1" stroke="none" stroke-width="1" fill="none" fill-rule="evenodd">
        <g id="芝麻/微信支付分免押" transform="translate(-120.000000, -1018.000000)" fill="#FFFFFF">
            <g id="按钮2" transform="translate(30.000000, 903.000000)">
                <g id="编组-2" transform="translate(90.000000, 115.000000)">
                    <path d="M31.2757454,3.29875615 C24.4077437,-2.31432127 17.4566088,-0.0832957286 15.1486426,4.90934913 C14.7780151,5.73460002 12.6081887,11.321306 18.4775256,17.7401194 C18.4914108,17.7550632 18.5051179,17.7700071 18.5188251,17.7849509 C18.6135291,17.8879754 18.7098353,17.9913515 18.8089898,18.0947276 C21.7494437,21.1673544 25.9682243,23.283752 25.9682243,27.683039 C25.9682243,33.2289571 20.1029818,37.6804596 14.1355585,34.1449258 C14.1355585,34.1449258 13.1721406,33.5513921 12.5193591,32.7395028 C11.7136627,31.7377389 6.9788162,25.8530354 16.5398309,18.8491272 C15.3699154,17.7042542 11.8261682,13.7207572 12.2437917,7.84291037 C6.78264352,12.9157245 5,18.4268322 5,23.4400468 C5,34.9100498 13.1988429,42.2977506 22.7676903,41.9907868 C33.882599,41.6340689 41,33.1106371 41,22.0998492 C41,15.6805084 37.7264798,8.57093848 31.2757454,3.29875615" id="Fill-1"></path>
                </g>
            </g>
        </g>
    </g>
</svg>